<svg width="134" height="107" viewBox="0 0 134 107" fill="none" xmlns="http://www.w3.org/2000/svg">
<path opacity="0.9" d="M67.0191 0.0946046C43.5933 0.0933166 20.1662 8.66202 1.91284 25.7942C0.782253 26.8558 0.147315 28.289 0.122695 29.8372C0.0986558 31.3775 0.686619 32.8294 1.77678 33.9177L12.5012 44.635C14.6593 46.7915 18.0991 46.8584 20.3321 44.7888C33.0344 33.0126 49.614 26.5255 67.0191 26.5255C84.4242 26.5255 101.004 33.0126 113.707 44.7888C114.792 45.7982 116.164 46.2982 117.536 46.2982C118.983 46.2982 120.429 45.742 121.537 44.635L132.262 33.9177C133.352 32.8294 133.942 31.3775 133.915 29.8372C133.89 28.2903 133.253 26.8558 132.123 25.7942C113.869 8.66202 90.4449 0.0946046 67.0191 0.0946046ZM67.0191 41.6629C53.8646 41.6629 41.2345 46.4546 31.4569 55.153C30.3077 56.1759 29.6227 57.6466 29.5785 59.1881C29.533 60.739 30.1365 62.255 31.2349 63.3525L41.9825 74.0926C44.0736 76.181 47.3502 76.3227 49.6099 74.422C54.4573 70.3436 60.6412 68.0979 67.0191 68.0979C73.397 68.0979 79.5809 70.3436 84.4282 74.422C85.4905 75.3162 86.7776 75.7587 88.0634 75.7587C89.5083 75.7587 90.9506 75.2003 92.058 74.0926L102.804 63.3553C103.9 62.2577 104.506 60.739 104.46 59.1881C104.415 57.6466 103.73 56.1759 102.581 55.153C92.8032 46.4546 80.1736 41.6629 67.0191 41.6629ZM67.0191 83.23C63.8415 83.23 60.8539 84.4693 58.6075 86.7141C53.9703 91.3491 53.969 98.8903 58.6075 103.525C60.9262 105.842 63.9726 107 67.0191 107C70.0656 107 73.112 105.842 75.4306 103.525C77.677 101.28 78.9146 98.2951 78.9146 95.1192C78.9146 91.9443 77.677 88.9589 75.4306 86.7141C73.1843 84.4675 70.1967 83.23 67.0191 83.23Z" fill="#151515"/>
</svg>
