<svg width="694" height="175" viewBox="0 0 694 175" fill="none" xmlns="http://www.w3.org/2000/svg">
<path d="M34.1294 162V172H44.1294V162H34.1294ZM34.1294 11.9224H44.1294V1.92236H34.1294V11.9224ZM10.8325 11.9224V1.92236H0.83252V11.9224H10.8325ZM10.8325 162H0.83252V172H10.8325V162ZM44.1294 162V11.9224H24.1294V162H44.1294ZM34.1294 1.92236H10.8325V21.9224H34.1294V1.92236ZM0.83252 11.9224V162H20.8325V11.9224H0.83252ZM10.8325 172H34.1294V152H10.8325V172ZM59.0903 162H49.0903V172H59.0903V162ZM81.5552 162V172H91.5552V162H81.5552ZM130.853 162H120.853V172H130.853V162ZM153.422 162V172H163.422V162H153.422ZM81.0352 70.8926V80.8926H87.3559L90.0679 75.1831L81.0352 70.8926ZM80.5151 70.8926H70.5151V80.8926H80.5151V70.8926ZM80.5151 52.5879H90.5151V42.5879H80.5151V52.5879ZM59.0903 52.5879V42.5879H49.0903V52.5879H59.0903ZM59.0903 172H81.5552V152H59.0903V172ZM91.5552 162V98.2456H71.5552V162H91.5552ZM91.5552 98.2456C91.5552 91.7536 93.4851 87.2909 95.9933 84.5592C98.4221 81.9141 102.14 80.0605 107.556 80.0605V60.0605C97.1642 60.0605 87.8811 63.8232 81.2616 71.0324C74.7214 78.1552 71.5552 87.7849 71.5552 98.2456H91.5552ZM107.556 80.0605C113.408 80.0605 116.159 81.6982 117.613 83.3185C119.24 85.1314 120.853 88.7146 120.853 95.5415H140.853C140.853 85.9357 138.618 76.7785 132.497 69.9591C126.203 62.9471 117.305 60.0605 107.556 60.0605V80.0605ZM120.853 95.5415V162H140.853V95.5415H120.853ZM130.853 172H153.422V152H130.853V172ZM163.422 162V91.1733H143.422V162H163.422ZM163.422 91.1733C163.422 76.8624 159.457 64.057 150.822 54.7454C142.09 45.3299 129.721 40.7158 115.46 40.7158V60.7158C125.329 60.7158 131.94 63.7981 136.157 68.345C140.47 72.996 143.422 80.4193 143.422 91.1733H163.422ZM115.46 40.7158C95.0653 40.7158 79.7177 50.3593 72.0024 66.602L90.0679 75.1831C94.2091 66.4649 102.158 60.7158 115.46 60.7158V40.7158ZM81.0352 60.8926H80.5151V80.8926H81.0352V60.8926ZM90.5151 70.8926V52.5879H70.5151V70.8926H90.5151ZM80.5151 42.5879H59.0903V62.5879H80.5151V42.5879ZM49.0903 52.5879V162H69.0903V52.5879H49.0903ZM181.711 162H171.711V172H181.711V162ZM204.28 162V172H214.28V162H204.28ZM204.28 70.3726V60.3726H194.28V70.3726H204.28ZM226.121 70.3726V80.3726H236.121V70.3726H226.121ZM226.121 52.7959H236.121V42.7959H226.121V52.7959ZM203.968 52.7959H193.968V62.7959H203.968V52.7959ZM226.537 28.563L224.665 38.3864L236.537 40.6475V28.563H226.537ZM226.537 11.9224H236.537V3.54989L228.295 2.07809L226.537 11.9224ZM181.711 52.7959V62.7959H191.711V52.7959H181.711ZM166.63 52.7959V42.7959H156.63V52.7959H166.63ZM166.63 70.3726H156.63V80.3726H166.63V70.3726ZM181.711 70.3726H191.711V60.3726H181.711V70.3726ZM181.711 172H204.28V152H181.711V172ZM214.28 162V70.3726H194.28V162H214.28ZM204.28 80.3726H226.121V60.3726H204.28V80.3726ZM236.121 70.3726V52.7959H216.121V70.3726H236.121ZM226.121 42.7959H203.968V62.7959H226.121V42.7959ZM213.968 52.7959V42.4995H193.968V52.7959H213.968ZM213.968 42.4995C213.968 40.836 214.169 39.7895 214.36 39.191C214.452 38.9036 214.536 38.7384 214.582 38.6586C214.605 38.618 214.622 38.5942 214.631 38.5827C214.64 38.5714 214.644 38.5671 214.644 38.5667C214.644 38.5664 214.646 38.5644 214.652 38.5596C214.659 38.5547 214.675 38.5425 214.704 38.5241C214.762 38.4888 214.899 38.4139 215.154 38.3278C215.686 38.1483 216.677 37.939 218.32 37.939V17.939C211.891 17.939 205.238 19.5553 200.312 24.6175C195.435 29.6277 193.968 36.2579 193.968 42.4995H213.968ZM218.32 37.939C221.008 37.939 223.335 38.133 224.665 38.3864L228.408 18.7396C225.37 18.161 221.665 17.939 218.32 17.939V37.939ZM236.537 28.563V11.9224H216.537V28.563H236.537ZM228.295 2.07809C224.798 1.45364 219.113 0.882324 213.952 0.882324V20.8823C217.944 20.8823 222.451 21.351 224.779 21.7666L228.295 2.07809ZM213.952 0.882324C201.552 0.882324 190.426 3.63975 182.503 11.3679C174.526 19.1485 171.711 30.0874 171.711 42.0835H191.711C191.711 32.8628 193.888 28.2011 196.468 25.6853C199.101 23.1171 204.096 20.8823 213.952 20.8823V0.882324ZM171.711 42.0835V52.7959H191.711V42.0835H171.711ZM181.711 42.7959H166.63V62.7959H181.711V42.7959ZM156.63 52.7959V70.3726H176.63V52.7959H156.63ZM166.63 80.3726H181.711V60.3726H166.63V80.3726ZM171.711 70.3726V162H191.711V70.3726H171.711ZM286.235 174.08C304.275 174.08 320.053 167.811 331.262 155.701C342.399 143.669 348.133 126.847 348.133 107.294H328.133C328.133 122.999 323.57 134.569 316.585 142.116C309.671 149.585 299.5 154.08 286.235 154.08V174.08ZM348.133 107.294C348.133 87.7728 342.362 70.9778 331.214 58.9674C319.999 46.885 304.23 40.6118 286.235 40.6118V60.6118C299.441 60.6118 309.621 65.1031 316.555 72.5734C323.556 80.1157 328.133 91.6618 328.133 107.294H348.133ZM286.235 40.6118C268.24 40.6118 252.471 46.885 241.256 58.9674C230.108 70.9778 224.337 87.7728 224.337 107.294H244.337C244.337 91.6618 248.914 80.1157 255.915 72.5734C262.849 65.1031 273.028 60.6118 286.235 60.6118V40.6118ZM224.337 107.294C224.337 126.847 230.07 143.669 241.208 155.701C252.417 167.811 268.195 174.08 286.235 174.08V154.08C272.97 154.08 262.799 149.585 255.885 142.116C248.9 134.569 244.337 122.999 244.337 107.294H224.337ZM286.235 135.567C280.365 135.567 276.099 133.38 273.04 129.432C269.756 125.194 267.218 118.034 267.218 107.294H247.218C247.218 120.89 250.4 132.867 257.231 141.682C264.286 150.787 274.528 155.567 286.235 155.567V135.567ZM267.218 107.294C267.218 96.6141 269.752 89.4813 273.034 85.2547C276.093 81.314 280.363 79.1245 286.235 79.1245V59.1245C274.53 59.1245 264.291 63.9033 257.236 72.989C250.404 81.789 247.218 93.7409 247.218 107.294H267.218ZM286.235 79.1245C292.106 79.1245 296.376 81.314 299.436 85.2547C302.718 89.4813 305.252 96.6141 305.252 107.294H325.252C325.252 93.7409 322.066 81.789 315.233 72.989C308.179 63.9033 297.94 59.1245 286.235 59.1245V79.1245ZM305.252 107.294C305.252 118.054 302.731 125.212 299.461 129.442C296.425 133.37 292.17 135.567 286.235 135.567V155.567C297.98 155.567 308.234 150.796 315.286 141.672C322.105 132.85 325.252 120.87 325.252 107.294H305.252ZM451.393 141.823H461.393V131.823H451.393V141.823ZM381.502 141.823H371.502V151.823H381.502V141.823ZM381.502 11.9224H391.502V1.92236H381.502V11.9224ZM358.206 11.9224V1.92236H348.206V11.9224H358.206ZM358.206 162H348.206V172H358.206V162ZM451.393 162V172H461.393V162H451.393ZM451.393 131.823H381.502V151.823H451.393V131.823ZM391.502 141.823V11.9224H371.502V141.823H391.502ZM381.502 1.92236H358.206V21.9224H381.502V1.92236ZM348.206 11.9224V162H368.206V11.9224H348.206ZM358.206 172H451.393V152H358.206V172ZM461.393 162V141.823H441.393V162H461.393ZM535.22 144.007V134.007H529.156L526.353 139.384L535.22 144.007ZM535.74 144.007H545.74V134.007H535.74V144.007ZM535.74 162H525.74V172H535.74V162ZM557.269 162V172H567.269V162H557.269ZM468.658 84.9331L458.678 84.3028L458.006 94.9331H468.658V84.9331ZM489.875 84.9331V94.9331H498.055L499.676 86.9143L489.875 84.9331ZM534.908 96.7896L535.497 106.772L544.908 106.217V96.7896H534.908ZM504.955 98.5576L505.514 108.542L505.529 108.541L505.544 108.54L504.955 98.5576ZM507.971 114.054L507.355 104.073L507.315 104.076L507.275 104.078L507.971 114.054ZM534.908 112.39H544.908V101.753L534.292 102.409L534.908 112.39ZM500.691 173.872C518.338 173.872 535.829 164.47 544.087 148.63L526.353 139.384C521.923 147.882 511.749 153.872 500.691 153.872V173.872ZM535.22 154.007H535.74V134.007H535.22V154.007ZM525.74 144.007V162H545.74V144.007H525.74ZM535.74 172H557.269V152H535.74V172ZM567.269 162V86.5972H547.269V162H567.269ZM567.269 86.5972C567.269 72.8325 561.843 60.9414 551.855 52.6724C542.063 44.5661 528.733 40.6118 513.795 40.6118V60.6118C525.379 60.6118 533.786 63.6778 539.101 68.078C544.219 72.3155 547.269 78.417 547.269 86.5972H567.269ZM513.795 40.6118C498.522 40.6118 485.227 44.7309 475.362 52.51C465.391 60.373 459.481 71.5751 458.678 84.3028L478.638 85.5634C479.082 78.5304 482.221 72.5719 487.746 68.2144C493.378 63.773 502.028 60.6118 513.795 60.6118V40.6118ZM468.658 94.9331H489.875V74.9331H468.658V94.9331ZM499.676 86.9143C500.193 84.3603 501.378 82.622 503.092 81.3997C504.917 80.0977 508.024 78.9165 512.963 78.9165V58.9165C504.902 58.9165 497.453 60.8555 491.478 65.1177C485.391 69.4595 481.533 75.7295 480.073 82.9519L499.676 86.9143ZM512.963 78.9165C518.144 78.9165 521.009 80.2836 522.452 81.5618C523.737 82.701 524.908 84.6499 524.908 88.3652H544.908C544.908 79.9121 541.971 72.1367 535.716 66.5936C529.618 61.1896 521.511 58.9165 512.963 58.9165V78.9165ZM524.908 88.3652V96.7896H544.908V88.3652H524.908ZM534.319 86.8069L504.366 88.575L505.544 108.54L535.497 106.772L534.319 86.8069ZM504.396 88.5733C490.169 89.37 477.731 93.0338 468.639 100.28C459.203 107.801 454.29 118.473 454.29 130.903H474.29C474.29 124.196 476.709 119.424 481.105 115.92C485.845 112.142 493.741 109.201 505.514 108.542L504.396 88.5733ZM454.29 130.903C454.29 143.42 459.13 154.412 467.763 162.189C476.309 169.887 487.922 173.872 500.691 173.872V153.872C492.035 153.872 485.447 151.201 481.149 147.329C476.937 143.535 474.29 138.043 474.29 130.903H454.29ZM506.931 136.087C502.523 136.087 499.908 134.942 498.627 133.928C497.564 133.088 496.962 132.036 496.962 130.279H476.962C476.962 138.09 480.313 144.943 486.219 149.614C491.905 154.112 499.275 156.087 506.931 156.087V136.087ZM496.962 130.279C496.962 128.668 497.448 127.774 498.559 126.913C500.029 125.775 503.118 124.417 508.667 124.03L507.275 104.078C499.408 104.627 491.992 106.702 486.312 111.102C480.273 115.779 476.962 122.529 476.962 130.279H496.962ZM508.588 124.035L535.525 122.371L534.292 102.409L507.355 104.073L508.588 124.035ZM524.908 112.39V121.022H544.908V112.39H524.908ZM524.908 121.022C524.908 128.699 518.224 136.087 506.931 136.087V156.087C527.047 156.087 544.908 141.843 544.908 121.022H524.908ZM602.927 71.2046V81.2046H609.017L611.812 75.7929L602.927 71.2046ZM602.407 71.2046H592.407V81.2046H602.407V71.2046ZM602.407 11.9224H612.407V1.92236H602.407V11.9224ZM579.942 11.9224V1.92236H569.942V11.9224H579.942ZM579.942 162H569.942V172H579.942V162ZM601.783 162V172H611.783V162H601.783ZM601.783 143.383V133.383H591.783V143.383H601.783ZM602.199 143.383L611.024 138.681L608.202 133.383H602.199V143.383ZM637.352 173.872C654.097 173.872 668.426 167.169 678.364 154.905C688.125 142.86 693.01 126.279 693.01 107.294H673.01C673.01 123.046 668.951 134.755 662.825 142.314C656.876 149.655 648.376 153.872 637.352 153.872V173.872ZM693.01 107.294C693.01 88.3406 688.089 71.7909 678.334 59.7685C668.409 47.5369 654.116 40.8198 637.456 40.8198V60.8198C648.357 60.8198 656.841 65.0232 662.803 72.3703C668.934 79.9266 673.01 91.614 673.01 107.294H693.01ZM637.456 40.8198C618.354 40.8198 602.371 50.4856 594.042 66.6163L611.812 75.7929C616.587 66.5466 625.565 60.8198 637.456 60.8198V40.8198ZM602.927 61.2046H602.407V81.2046H602.927V61.2046ZM612.407 71.2046V11.9224H592.407V71.2046H612.407ZM602.407 1.92236H579.942V21.9224H602.407V1.92236ZM569.942 11.9224V162H589.942V11.9224H569.942ZM579.942 172H601.783V152H579.942V172ZM611.783 162V143.383H591.783V162H611.783ZM601.783 153.383H602.199V133.383H601.783V153.383ZM593.373 148.085C601.898 164.086 617.699 173.872 637.352 173.872V153.872C624.971 153.872 616.02 148.057 611.024 138.681L593.373 148.085ZM631.32 79.7485C637.097 79.7485 641.273 81.976 644.283 85.9451C647.52 90.212 649.921 97.2467 649.921 107.294H669.921C669.921 94.3564 666.862 82.6183 660.218 73.8587C653.348 64.8014 643.224 59.7485 631.32 59.7485V79.7485ZM649.921 107.294C649.921 117.463 647.512 124.481 644.295 128.705C641.31 132.625 637.145 134.839 631.32 134.839V154.839C643.175 154.839 653.311 149.877 660.206 140.822C666.87 132.072 669.921 120.318 669.921 107.294H649.921ZM631.32 134.839C625.954 134.839 621.57 132.632 618.287 128.442C614.86 124.065 612.303 117.02 612.303 107.294H592.303C592.303 120.345 595.726 132.072 602.543 140.774C609.505 149.663 619.629 154.839 631.32 154.839V134.839ZM612.303 107.294C612.303 97.69 614.851 90.6288 618.299 86.2092C621.607 81.9691 626.001 79.7485 631.32 79.7485V59.7485C619.582 59.7485 609.467 65.0162 602.531 73.9066C595.735 82.6176 592.303 94.329 592.303 107.294H612.303Z" fill="#584753"/>
</svg>
